<?xml version="1.0" encoding="UTF-8"?>
<svg id="Camada_2" data-name="Camada 2" xmlns="http://www.w3.org/2000/svg" viewBox="0 0 4847.81 777.85">
  <defs>
    <style>
      .cls-1 {
        fill: #fff;
      }
    </style>
  </defs>
  <g id="Camada_1-2" data-name="Camada 1">
    <path class="cls-1" d="M3193.85.4q-15.92-.87-15.92,5.66c0,255.21,0,510.41,0,765.62v6.17c6.28-.13,11.14-.24,15.93-.34V.4Z"/>
    <g>
      <path class="cls-1" d="M772.81,370.19c-8.88-12.04-23.03-18.17-37.4-18.17-33.39,0-57.05,29.37-57.05,62.12,0,34.65,23.46,62.12,57.05,62.12,18.17,0,32.75-7.4,43.32-20.92l13.31,11.2c-13.31,17.96-32.75,26.2-56.63,26.2-42.89,0-76.07-33.17-76.07-78.61s31.7-78.6,76.07-78.6c20.29,0,40.15,6.97,52.83,23.45l-15.42,11.2Z"/>
      <path class="cls-1" d="M850.36,414.14c0-45.22,32.75-78.6,78.18-78.6s78.18,33.39,78.18,78.6-32.75,78.61-78.18,78.61-78.18-33.39-78.18-78.61ZM987.7,414.14c0-34.44-24.09-62.12-59.17-62.12s-59.17,27.68-59.17,62.12,24.09,62.12,59.17,62.12,59.17-27.68,59.17-62.12Z"/>
      <path class="cls-1" d="M1077.5,339.34h17.75v133.12h68.46v16.48h-86.21v-149.6Z"/>
      <path class="cls-1" d="M1225.42,339.34h17.75v133.12h68.46v16.48h-86.21v-149.6Z"/>
      <path class="cls-1" d="M1421.93,339.34h16.69l63.6,149.6h-20.71l-15.21-36.77h-74.8l-15.42,36.77h-20.07l65.93-149.6ZM1429.96,362.16h-.42l-31.06,73.53h61.07l-29.58-73.53Z"/>
      <path class="cls-1" d="M1564.34,339.34h38.25c28.95,0,59.59,4.23,59.59,41.21,0,21.76-14.16,35.92-37.4,39.51l42.47,68.88h-21.76l-40.57-67.19h-22.82v67.19h-17.75v-149.6ZM1582.09,405.27h15.85c19.65,0,45.22,0,45.22-24.72,0-21.55-18.81-24.72-36.13-24.72h-24.93v49.45Z"/>
      <path class="cls-1" d="M1941.51,370.19c-8.88-12.04-23.03-18.17-37.4-18.17-33.39,0-57.05,29.37-57.05,62.12,0,34.65,23.46,62.12,57.05,62.12,18.17,0,32.75-7.4,43.32-20.92l13.31,11.2c-13.31,17.96-32.75,26.2-56.63,26.2-42.9,0-76.07-33.17-76.07-78.61s31.7-78.6,76.07-78.6c20.29,0,40.15,6.97,52.83,23.45l-15.42,11.2Z"/>
      <path class="cls-1" d="M2076.32,339.34h16.69l63.6,149.6h-20.71l-15.21-36.77h-74.8l-15.42,36.77h-20.07l65.93-149.6ZM2084.35,362.16h-.42l-31.06,73.53h61.07l-29.58-73.53Z"/>
      <path class="cls-1" d="M2218.74,339.34h44.37c27.47,0,52.4,9.72,52.4,40.99s-27.89,41.42-49.02,41.42h-30.01v67.19h-17.75v-149.6ZM2236.49,405.27h30.01c17.75,0,30-8.03,30-24.72s-12.26-24.72-30-24.72h-30.01v49.45Z"/>
      <path class="cls-1" d="M2386.29,339.34h17.75v149.6h-17.75v-149.6Z"/>
      <path class="cls-1" d="M2583.86,355.82h-49.45v133.12h-17.75v-133.12h-49.45v-16.48h116.64v16.48Z"/>
      <path class="cls-1" d="M2695.64,339.34h16.69l63.6,149.6h-20.71l-15.21-36.77h-74.8l-15.42,36.77h-20.07l65.93-149.6ZM2703.67,362.16h-.42l-31.06,73.53h61.07l-29.58-73.53Z"/>
      <path class="cls-1" d="M2838.05,339.34h17.75v133.12h68.46v16.48h-86.21v-149.6Z"/>
    </g>
    <g>
      <path class="cls-1" d="M3974.64,274.49c-6.44,2.28-10.18.99-13.43-5.33-35.72-69.24-90.32-116.45-165.91-136.65-77.19-20.63-149.83-7.61-214.34,39.42-78.32,57.1-115.5,136.02-110.04,232.54,5.27,93.09,49.04,165.82,129.29,213.53,119.1,70.8,270.43,33.87,345.13-82.65,7.8-12.16,16.72-17.7,30.83-16.62,7.26.55,14.73.2,21.93-.91,16.1-2.46,23.4-10.32,25.47-26.43.56-4.38.52-8.84.82-14.27-2.45,1.1-4.01,1.78-5.55,2.5-26.47,12.31-53.13,11.78-79.2-.43-14.79-6.93-22.28-20.41-25.56-36.04-4.53-21.64-4.75-43.36.53-64.92,5.06-20.67,18-34.38,38.41-40.05,22.72-6.32,45.76-6.36,68.56-.01,25.09,6.99,38.25,24.77,40.62,49.69,1.91,20.1,1.21,40.45,1.5,60.69.17,12.1.2,24.21-.05,36.31-.83,39.98-22.23,62.43-62.24,64.77-14.69.86-29.45.81-44.17.49-6.49-.14-10.52,1.97-14.42,7.14-37.07,49.13-85.33,82.1-144.76,98.1-107.35,28.9-222.97-12.49-286.17-103.86-58.35-84.36-70.18-176.15-30.18-270.52,42.21-99.61,119.3-158.23,228.21-166.6,104.24-8.01,185.43,36.23,244.35,121.87,7.11,10.34,12.47,21.9,18.55,32.94.85,1.55,1.17,3.38,1.82,5.33ZM3949.79,408.55c.8,10.11.96,17.76,2.09,25.28,1.91,12.76,8.68,20.12,21.54,21.57,9.79,1.1,19.93.82,29.74-.3,11.53-1.31,19.07-8.95,19.75-20.34.96-15.92.8-32-.39-47.9-.82-10.97-8.08-18.72-19.31-19.86-10.59-1.07-21.47-1-32.05.13-9.31.99-15.98,7.15-17.93,16.58-1.85,8.94-2.55,18.13-3.44,24.85Z"/>
      <path class="cls-1" d="M3616.64,278.2c13.5-2.19,26.13-4.23,39.75-6.44v71.49c11.44-3.12,22.09-8.02,32.93-8.49,14.2-.63,28.89.76,42.76,3.96,17.29,3.99,28.74,16.33,33.98,33.26,8.7,28.09,8.35,56.6.83,84.83-5.02,18.85-18.41,30.42-36.76,35.73-24.01,6.94-48.4,7.33-72.36.03-26.29-8.01-37.76-28.26-39.89-54.02-1.49-18.04-.92-36.26-1.02-54.4-.17-31.8-.16-63.6-.22-95.39,0-3.13,0-6.26,0-10.56ZM3655.44,414.71c.39.02.78.04,1.17.06,0,6.3-.39,12.62.07,18.88,1.54,20.67,10.31,29.8,30.77,31.82,5.68.56,11.55.26,17.24-.44,15.49-1.9,24.24-8.74,25.61-24.09,1.56-17.36,1.27-35.08-.32-52.45-1.12-12.28-9.87-20.46-22.57-21.73-9.29-.93-18.89-.9-28.14.33-11.82,1.57-19.46,9.04-21.32,21.07-1.36,8.77-1.71,17.7-2.52,26.56Z"/>
      <path class="cls-1" d="M3840.24,338.5h56.88c-2.09,10.54-3.76,20.25-6.17,29.77-.35,1.37-4.25,2.55-6.52,2.59-12.07.19-24.16.16-36.23-.17-5.12-.14-7.63.96-7.52,6.86.39,19.71-.03,39.44.47,59.14.44,17.62,7.16,24.03,24.77,24.56,9.15.27,18.31.05,28.91.05-2.15,10.47-3.96,19.88-6.16,29.19-.28,1.2-2.66,2.78-3.99,2.72-16.73-.88-33.78-.34-50.09-3.53-20.27-3.97-30.56-16.74-31.96-37.78-1.52-23.04-1.36-46.2-1.52-69.31-.17-25.06.3-50.13.12-75.19-.04-5.93,1.69-8.32,7.78-8.92,10.13-1,20.16-2.99,31.23-4.72v44.75Z"/>
      <path class="cls-1" d="M4129,463.96v57.94c-11.36,2.12-11.63,1.91-11.6-8.21.12-38.87-.62-77.77.62-116.61,1.12-35.05,23.52-53.93,58.57-52.01,16.33.9,33.03,2.53,42.75,17.4,5.8,8.87,10.1,19.97,11.13,30.45,1.57,16.06,1.13,32.63-.99,48.65-3.25,24.57-18.73,37.79-43.37,40.24-20.65,2.05-39.8-1.03-57.1-17.85ZM4220.27,414.73c-1.01-10.2-1.24-19.99-3.09-29.48-2.9-14.88-12.15-24.58-27.44-26.52-9.26-1.18-18.92-1.4-28.15-.17-17.33,2.29-27.93,12.52-29.77,29.73-1.64,15.34-2.23,31-1.12,46.37,1.49,20.59,12.89,31.92,33.41,34.64,8.7,1.15,17.83.71,26.58-.47,14.3-1.92,23.27-10.92,26.18-24.84,2.03-9.71,2.37-19.77,3.41-29.25Z"/>
      <path class="cls-1" d="M4799.21,406.57c-1.25-10.26-1.26-20.04-3.83-29.1-3.36-11.88-13.89-16.22-25.1-17.15-13.59-1.13-27.28-.96-40.93-1.31-3.61-.09-7.23-.01-10.9-.01.83-11.57.83-11.75,11.16-11.55,14.71.29,29.57-.35,44.08,1.59,23.98,3.2,35.32,16.19,36.22,40.18.69,18.39.56,36.84.03,55.24-.55,19.06-10.44,31.41-28.94,35.32-17.08,3.61-34.48,4.29-51.44-1.3-13.59-4.48-21.27-14.26-22.74-28.35-.75-7.26-.93-14.79.08-21.99,2.13-15.17,10.79-25.97,25.75-29.63,21.45-5.25,42.76-5.36,62.39,7.17.58.37,1.44.33,4.15.88ZM4757.12,406.45c-26.69-.16-42.79,8.23-38.51,41.66,1.33,10.4,7.27,18.45,17.66,19.59,14.17,1.55,28.7,1.96,42.87.66,11.4-1.05,18.05-9.26,18.82-20.18.95-13.45,1.83-27.31-12.65-35.39-1.82-1.02-3.8-1.95-5.83-2.35-7.42-1.46-14.9-2.68-22.35-3.99Z"/>
      <path class="cls-1" d="M4344.31,404.58c-.63-7.12-.59-15.76-2.29-24.05-2.74-13.25-12.9-18.9-25.26-19.95-14.1-1.2-28.32-1.1-42.48-1.53-3.09-.09-6.19-.01-9.24-.01-.64-11.3-.37-11.81,9.59-11.58,15.47.36,31.09-.11,46.38,1.86,21.02,2.7,32.62,14.97,33.92,36.18,1.27,20.68,1.09,41.53.16,62.24-.69,15.23-9.13,26.4-24.15,30.73-19.03,5.49-38.34,6.13-57.3-.63-11.24-4.01-18-12.34-20.54-24.03-.44-2.05-.92-4.11-1.15-6.19-4.08-36.74,16.04-55.72,56.03-51.64,11.93,1.22,23.55,5.49,36.33,8.61ZM4301.86,471.11c7.6-.69,13.12-.95,18.57-1.73,15.19-2.16,21.93-8.71,23.27-22.2,1.96-19.87-3.33-31.42-17.5-36.4-13.98-4.91-28.46-4.98-42.75-1.75-10.31,2.33-17.34,9.04-18.84,19.84-.9,6.43-1,13.12-.37,19.58.96,9.88,6.84,16.6,16.37,19.08,7.56,1.97,15.45,2.64,21.25,3.58Z"/>
      <path class="cls-1" d="M4580.56,347.9h11.67c0,3.31,0,6.14,0,8.97,0,23.95-.02,47.89.02,71.84,0,3.94.08,7.91.5,11.82,2.18,20.38,11.7,29.3,32.26,30.45,35.85,2,46.92-8.37,46.9-44.01-.02-22.89-.12-45.77-.18-68.65,0-3.34,0-6.68,0-10.45h11.23c.31,1.44.82,2.68.81,3.92-.21,28.94.1,57.89-.91,86.8-.99,28.2-13.48,41.31-41.44,43.99-9.8.94-20.05.17-29.75-1.67-18.88-3.58-30.11-16.41-30.84-37.56-1.08-31.47-.28-63-.28-95.45Z"/>
      <path class="cls-1" d="M4492.12,314.44c3.96-.66,7.27-1.22,11.97-2,0,9.79.28,18.84-.1,27.87-.24,5.57,1.74,7.3,7.21,7.2,15.73-.28,31.46-.1,47.23-.1-.73,11.78-.73,11.83-11.61,11.78-11.82-.05-23.64-.01-35.45-.39-5.27-.17-7.46,1.25-7.39,7.01.31,24.44-.03,48.89.28,73.34.28,21.9,8.96,30.11,31.15,30.28,7.32.06,14.63,0,22.98,0-.9,4.44-1.61,7.93-2.7,13.36-13.4-1.35-26.73-1.84-39.69-4.27-11.46-2.15-18.74-10.26-21.37-21.79-1.34-5.85-2.68-11.87-2.71-17.82-.24-39.95-.13-79.91-.12-119.87,0-1.29.18-2.58.34-4.6Z"/>
      <path class="cls-1" d="M4468.68,346.61c.49,10.1-2.99,13.28-11.64,12.8-10.71-.6-21.59-.34-32.26.77-19.63,2.05-30.17,12.04-32.21,31.64-1.4,13.5-1.6,27.32-.54,40.86,1.88,23.99,14.05,35.26,38.21,36.46,12.81.63,25.69.11,39.45.11-.92,4.49-1.63,7.98-2.68,13.14-16.54-.97-33.15-.73-49.33-3.2-19.9-3.03-32.26-15.9-36.34-35.66-4.13-20.02-4.22-40.24.53-60.2,4.53-19.06,16.9-31.16,36.13-33.83,16.53-2.29,33.42-2.01,50.69-2.89Z"/>
      <path class="cls-1" d="M4836.72,297.02h11.08v184.71h-11.08v-184.71Z"/>
    </g>
    <g>
      <path class="cls-1" d="M483.21,331.06c.68-8.45-.32-9.98-6.81-10.56-10.78-.96-12.33.1-13.13,8.94-1.63,17.98-3.14,35.97-5.04,53.92-.14,1.3-.52,2.57-1,3.83-1.25,3.27-5.14,4.67-8.16,2.89-1.14-.68-2.2-1.43-3.07-2.36-24.09-25.78-47.94-51.76-71.93-77.63-5.56-6-8.27-5.28-17.56,2.89-5.22,4.58-3.01,8.17.54,12.13,35.4,39.49,70.73,79.05,106.26,118.43.91,1.01,2.16,1.7,3.53,2.3,2.7,1.18,5.87.08,7.24-2.53.59-1.12,1.04-2.25,1.13-3.4,2.83-36.27,5.38-72.56,8.01-108.84Z"/>
      <path class="cls-1" d="M279.33,586.13c-.08-.31-.13-.62-.16-.93-1.14-13.85-2.08-14.33-15.39-11.58-50.04,10.33-100.1,20.53-150.1,31.04-1.67.35-3.22,1.22-4.75,2.24-2.68,1.79-3.34,5.44-1.45,8.05.91,1.26,1.9,2.4,3.1,3.24,29.27,20.23,58.76,40.14,88.07,60.33,5.27,3.63,9.49,5.95,13.96-1.11,5.44-8.6,5.46-10.03-2.49-15.65-.23-.16-.46-.32-.7-.48-14.32-10.07-28.72-20.03-42.9-30.3-.97-.71-1.84-1.56-2.65-2.49-2.36-2.71-1.58-6.93,1.58-8.64,1.29-.7,2.6-1.35,3.95-1.89,2.85-1.13,6.04-1.4,9.07-2.08,30.85-6.9,61.68-13.84,92.54-20.68,5.37-1.19,9.92-2.71,8.29-9.05Z"/>
      <path class="cls-1" d="M205.5,256.6c.05.29.08.58.09.87.32,12.96,2.27,15.14,11.32,13.48,51.66-9.43,103.33-18.82,154.94-28.48,1.53-.29,2.96-1.08,4.36-2.03,2.54-1.71,3.27-5.13,1.64-7.72-.9-1.43-1.88-2.74-3.15-3.67-28.76-20.95-57.72-41.65-86.63-62.4-4.46-3.2-8.65-6.82-13.43.1-6.43,9.3-6.62,10.44,1.38,16.38,14.75,10.94,29.61,21.72,44.26,32.8.62.47,1.16,1.03,1.67,1.64,2.2,2.69,1.49,6.7-1.5,8.47-.99.58-2,1.13-3.04,1.59-2.01.89-4.4.95-6.61,1.39-32.66,6.55-65.31,13.19-97.99,19.59-5.2,1.02-8.25,3.01-7.31,7.97Z"/>
      <path class="cls-1" d="M114.14,253.94c.33,1.01.36,2.1.09,3.14-.74,2.84-1.41,5.7-2.32,8.49-10.42,31.91-20.92,63.79-31.34,95.7-2.86,8.77-1.38,10.6,9.66,14.79,7.1,2.69,9.62-.88,11.62-6.77,16.94-49.96,34.05-99.87,50.89-149.87.39-1.17.43-2.46.32-3.8-.24-3.08-2.93-5.38-6.01-5.19-1.44.09-2.82.3-4.04.86-32.54,14.98-64.93,30.29-97.45,45.32-6.84,3.16-9.45,6.43-5.35,14.22,3.54,6.74,7.13,7.79,13.35,4.55,4.24-2.21,8.74-3.93,13.11-5.91,12.86-5.8,25.7-11.63,38.56-17.43,3.84-1.73,7.41-2.67,8.91,1.9Z"/>
      <path class="cls-1" d="M376.43,591.1c-1.67.73-3.6.64-5.14-.32-2.9-1.81-1.96-5.07-.84-8.47,11.13-33.8,22.2-67.63,33.35-101.42,2.81-8.52,1.59-10.03-9.75-14.7-7.23-2.98-9.42.6-11.46,6.56-17.07,49.97-34.35,99.87-51.4,149.86-.35,1.03-.46,2.14-.47,3.29-.03,3.03,2.35,5.55,5.38,5.69,1.81.08,3.55.02,5.02-.65,32.87-15.03,65.58-30.43,98.35-45.67,5.72-2.66,8.34-5.88,5.01-12.55-3.11-6.23-6.14-9.68-13.63-6.08-13.49,6.48-27.24,12.42-40.9,18.56-4.52,2.03-9.07,3.99-13.52,5.92Z"/>
      <path class="cls-1" d="M.13,512.82c-.74,5.03,1.77,7.9,8.52,8.15,6.29.23,10.98.34,11.64-7.96,1.44-18,3.42-35.97,5.53-53.91.18-1.56.65-3.08,1.23-4.59,1.24-3.26,5.1-4.66,8.11-2.91,1.35.79,2.61,1.66,3.61,2.76,23.37,25.68,46.49,51.59,69.72,77.39,6.12,6.8,8.6,6.31,18.22-1.81,5.87-4.96,2.69-8.74-.84-12.79-11.69-13.41-23.39-26.82-35.07-40.24-22.98-26.42-45.9-52.9-69.02-79.2-1.8-2.04-5.32-4.25-7.48-3.78-1.85.4-3.89,4.43-4.14,7.02-3.48,36.82-6.67,73.66-10.05,111.87Z"/>
    </g>
  </g>
</svg>